<svg width="92" height="24" viewBox="0 0 92 24" fill="none" xmlns="http://www.w3.org/2000/svg">
              <g clip-path="url(#clip0_9370_7115)"><path d="M28.6131 0.0125771L12.6961 19.012L9.29276 3.54176C8.83961 1.48084 7.01284 0.0125771 4.89971 0.0125771H0L5.27733 24H13.7944L33.8889 0.0125771H28.6115H28.6131Z" fill="#3C3C3C"></path><path d="M49.8375 2.73688H64.3368L65.0826 0.0125771L46.2233 0.0188651C38.5213 0.0220092 31.8106 5.26469 29.9523 12.7333L27.1484 24H35.5774L38.4961 14.1152H54.6176L55.3792 11.3908H39.3002L39.5975 10.3848C40.9365 5.84948 45.1046 2.73688 49.8359 2.73688H49.8375Z" fill="#3C3C3C"></path><path d="M61.8824 19.0702C61.906 19.0529 61.6197 19.6612 61.67 20.3183C61.9422 23.2313 65.0624 23.9135 73.1373 23.9135C84.1954 23.9135 86.7004 22.8288 88.4721 17.2812C89.7277 13.3229 89.3076 11.9835 85.5313 10.8281C88.7521 9.90686 89.7434 8.77029 90.6749 5.83376C92.2735 0.955787 90.5884 -0.00157166 80.265 -0.00157166C69.9416 -0.00157166 67.6082 1.08312 65.794 6.69522H74.4763C75.5132 3.47416 76.2905 2.83749 79.2281 2.83749C82.943 2.83749 83.5047 3.41128 82.5103 6.34466C81.862 8.48104 81.0847 8.89605 77.716 8.89605H74.2607L73.3371 11.7005H75.9286C80.1187 11.7005 81.1996 12.4268 80.3358 15.1055C79.2989 18.2936 78.6931 21.4989 73.9744 21.4989C70.6339 21.4989 70.0612 20.8151 71.0572 17.4195H62.5637L61.884 19.0717" fill="#3C3C3C"></path></g>
              <defs>
                <clipPath id="clip0_9370_7115"><rect width="91.2" height="24" fill="white"></rect></clipPath>
              </defs>
            </svg>