<svg width="92" height="24" viewBox="0 0 92 24" fill="none" xmlns="http://www.w3.org/2000/svg">
              <path d="M90.304 2.88555L91.2005 0.0554924H65.9623L62.7837 11.0705L75.2534 11.0428C75.2534 11.0428 75.8239 11.0705 75.8511 11.0705C79.4915 11.0705 79.9533 11.9029 78.595 16.1757C77.3181 20.3653 76.2858 21.5584 72.8627 21.5584C70.4177 21.5584 69.5483 20.6428 69.7928 18.2567H60.8277C60.0127 23.4173 62.6207 23.9723 72.102 23.9723C83.1319 23.9723 85.6584 22.696 87.7503 16.148C89.7335 9.79422 88.2936 8.3237 78.8395 8.21272L72.3737 8.18497L73.8679 2.88555C73.9494 2.88555 89.5433 2.88555 90.304 2.88555Z" fill="#3C3C3C"></path>
              <path d="M27.9821 0L12.4154 19.0058L9.10098 3.5237C8.63914 1.47052 6.87328 0 4.78141 0H0L5.16175 24H8.3403H13.5021L33.1439 0H27.9821Z" fill="#3C3C3C"></path>
              <path d="M48.7658 2.71908H62.9471L63.6806 0H45.2341C37.7088 0 31.1344 5.24393 29.3142 12.7075L26.5703 24H34.8291L37.6817 14.1225H53.4658L54.1993 11.4035H38.4695L38.7683 10.4046C40.0452 5.82659 44.1203 2.71908 48.7658 2.71908Z" fill="#3C3C3C"></path>
            </svg>