<svg width="92" height="31" viewBox="0 0 92 31" fill="none" xmlns="http://www.w3.org/2000/svg">
              <g clip-path="url(#clip0_8158_6100)">
                <path d="M87.75 16.0925C85.6853 22.6405 83.1316 23.9168 72.1017 23.9168C59.795 23.9168 59.0343 23.0012 62.3759 12.2358C65.6088 1.99769 67.2931 0 79.6813 0H91.2002L90.3037 2.83006C89.7875 2.83006 79.1652 2.83006 78.7848 2.83006C75.1444 2.83006 74.0577 3.69017 72.5092 8.15723H76.9103C77.1276 8.15723 77.3721 8.15723 77.6166 8.15723C78.0241 8.15723 78.4317 8.15723 78.812 8.15723H78.8392C88.2933 8.26821 89.7332 9.73873 87.75 16.0925ZM75.8779 11.015C75.6606 11.015 75.4704 11.015 75.2803 10.9873H71.6127C69.0318 19.311 68.8145 21.5029 72.8896 21.5029C76.3126 21.5029 77.3721 20.2821 78.6218 16.1202C79.9802 11.8197 79.5183 11.015 75.8779 11.015Z" fill="#3C3C3C"></path>
                <path d="M27.9821 0L12.4154 19.0058L9.10098 3.55145C8.63914 1.47052 6.87328 0 4.78141 0H0L5.16175 24H8.3403H13.5021L33.1439 0H27.9821Z" fill="#3C3C3C"></path>
                <path d="M48.7658 2.74682H62.9471L63.6806 0.0277443H45.2341C37.7088 0.0277443 31.1344 5.27168 29.3142 12.7353L26.5703 24H34.8291L37.6817 14.1225H53.4658L54.1993 11.4035H38.4695L38.7683 10.4046C40.0452 5.85433 44.1203 2.74682 48.7658 2.74682Z" fill="#3C3C3C"></path>
              </g>
              <defs>
                <clipPath id="clip0_8158_6100">
                  <rect width="91.2" height="24" fill="white"></rect>
                </clipPath>
              </defs>
            </svg>