<svg width="92" height="24" viewBox="0 0 92 24" fill="none" xmlns="http://www.w3.org/2000/svg">
              <g clip-path="url(#clip0_8834_7504)">
                <path d="M28.578 0L12.6798 19.0058L9.2948 3.5237C8.82312 1.47052 7.01965 0 4.88324 0H0L5.27168 24H8.51792H13.7896L33.8497 0H28.578Z" fill="#3C3C3C"></path>
                <path d="M49.8049 2.71908H64.2882L65.0373 0H46.198C38.5124 0 31.798 5.24393 29.939 12.7075L27.1367 24H35.5714L38.4847 14.1225H54.6049L55.3541 11.4035H39.2893L39.5945 10.4046C40.8986 5.82659 45.0604 2.71908 49.8049 2.71908Z" fill="#3C3C3C"></path>
                <path d="M91.2019 0.0832367H83.0169H66.1476L65.3984 2.88555H80.9915L65.8424 23.9723H71.7245C73.1672 23.9723 74.5268 23.2786 75.3869 22.0855L89.1765 2.8578L91.2019 0.0832367Z" fill="#3C3C3C"></path>
              </g>
              <defs>
                <clipPath id="clip0_8834_7504">
                  <rect width="91.2" height="24" fill="white"></rect>
                </clipPath>
              </defs>
            </svg>