<svg width="92" height="31" viewBox="0 0 92 31" fill="none" xmlns="http://www.w3.org/2000/svg">
              <g clip-path="url(#clip0_7952_5908)"></g>
              <g clip-path="url(#clip1_7952_5908)">
                <path d="M29.2082 -0.138729L12.957 18.8587L9.47464 3.39068C9.03542 1.33442 7.15304 -0.138729 4.9883 -0.138729H0L5.39615 23.8306H8.69031H14.0865L34.6044 -0.138729H29.2082Z" fill="#3C3C3C"></path>
                <path d="M50.8878 2.59273H65.6958L66.4487 -0.138729H47.1857C39.3111 -0.138729 32.4718 5.10935 30.5581 12.5672L27.7031 23.8306H36.2993L39.2797 13.9482H55.7506L56.5349 11.2168H40.1268L40.4405 10.204C41.7896 5.69247 46.0563 2.59273 50.8878 2.59273Z" fill="#3C3C3C"></path>
                <path d="M90.7298 5.75386C91.8906 1.42649 91.6082 -0.138729 80.8787 -0.138729C71.2158 -0.138729 68.8315 -0.108038 67.2314 5.66178C66.353 8.63877 66.3216 10.2347 68.7373 10.9712C65.1922 11.6157 64.1569 12.8434 62.902 17.447C61.3961 22.8792 61.1137 23.892 73.5374 23.892C84.2983 23.892 86.4944 23.6771 88.4082 17.4776C89.569 13.5799 89.9141 11.7999 86.2121 11.0326C88.6906 10.3881 89.7572 9.52879 90.7298 5.75386ZM80.6905 14.3472L79.4042 19.0429C79.0277 20.4546 77.6786 21.4367 76.11 21.4367H72.2511C71.2472 21.4367 70.5256 20.5467 70.7766 19.6567L72.157 14.9303C72.5649 13.5493 73.9139 12.5978 75.4512 12.5978H79.2159C80.2199 12.5978 80.9414 13.4572 80.6905 14.3472ZM83.2944 4.46485L82.5415 7.16562C82.165 8.54669 80.7846 9.52879 79.2473 9.52879H75.5139C74.51 9.52879 73.757 8.63877 74.0394 7.74874L74.8237 5.04797C75.2316 3.6669 76.5806 2.71549 78.1179 2.71549H81.8199C82.8238 2.71549 83.5454 3.57483 83.2944 4.46485Z" fill="#3C3C3C"></path>
              </g>
              <defs>
                <clipPath id="clip0_7952_5908">
                  <rect width="91.2" height="31" fill="white"></rect>
                </clipPath>
                <clipPath id="clip1_7952_5908">
                  <rect width="91.2" height="24" fill="white"></rect>
                </clipPath>
              </defs>
            </svg>