<svg width="92" height="31" viewBox="0 0 92 31" fill="none" xmlns="http://www.w3.org/2000/svg">
              <g clip-path="url(#clip0_7952_5911)"></g>
              <g clip-path="url(#clip1_7952_5911)">
                <path d="M29.0733 0L12.8995 19.0058L9.45589 3.5237C8.97604 1.47052 7.14132 0 4.96787 0H0L5.36304 24H8.66555H14.0286L34.4364 0H29.0733Z" fill="#3C3C3C"></path>
                <path d="M50.6666 2.71908H65.4008L66.1629 0H46.9971C39.1784 0 32.3475 5.24393 30.4564 12.7075L27.6055 24H36.1863L39.1501 14.1225H55.5498L56.3119 11.4035H39.9687L40.2792 10.4046C41.6058 5.82659 45.8398 2.71908 50.6666 2.71908Z" fill="#3C3C3C"></path>
                <path d="M65.1759 7.79653C67.1518 1.2763 69.6075 0 80.2207 0C92.0476 0 92.7815 0.915607 89.5636 11.6532C86.4869 21.8913 84.8498 23.889 72.9382 23.889H60.8008L61.6476 21.059C62.1557 21.059 73.4181 21.059 73.8132 21.059C77.3133 21.059 78.3577 20.1988 79.8537 15.7318H75.6197C75.3939 15.7318 75.1681 15.7318 74.9423 15.7318C74.5471 15.7318 74.1519 15.7318 73.785 15.7318H73.7568C64.6396 15.6208 63.2565 14.178 65.1759 7.79653ZM76.3536 12.9017C76.5512 12.9017 80.7005 12.9295 80.7005 12.9295C83.4385 4.24509 84.5675 2.94104 79.3456 2.94104C76.0431 2.94104 74.8294 3.57919 73.5874 7.74104C72.289 11.9861 72.8535 12.7908 76.3536 12.9017Z" fill="#3C3C3C"></path>
              </g>
              <defs>
                <clipPath id="clip0_7952_5911">
                  <rect width="91.2" height="31" fill="white"></rect>
                </clipPath>
                <clipPath id="clip1_7952_5911">
                  <rect width="91.2" height="24" fill="white"></rect>
                </clipPath>
              </defs>
            </svg>